# xmcd CD database file generated by Grip 3.2.0
# 
# Track frame offsets:
#       150
#       20300
#       40775
# 
# Disc length: 806 seconds
# 
# Revision: 1
# Processed by: cddbd v1.5.1PL0 Copyright (c) Steve Scherf et al.
# Submitted via: Grip 3.2.0
# 
DISCID=17032403
DTITLE=井上陽水 - Final Love Song
DYEAR=2002
DGENRE=JPop
TTITLE0=Final Love Song
TTITLE1=ヤギのミルク
TTITLE2=Final Love Song (instrumental)
EXTD=YEAR: 2002
EXTT0=
EXTT1=
EXTT2=
PLAYORDER=
